<svg width="162" height="35" viewBox="0 0 162 35" fill="none" xmlns="http://www.w3.org/2000/svg">
<path fill-rule="evenodd" clip-rule="evenodd" d="M25.6628 34.7143L23.9115 28.4149H12.357L10.557 34.7143H0L11.6031 0.964277H24.4224L36.1712 34.7143H25.6628ZM22.9966 21.2143L21.4123 15.6953C21.0435 14.4689 20.5949 12.8822 20.0668 10.9352C19.5387 8.98823 19.1908 7.59317 19.0231 6.74999C18.8722 7.53185 18.5747 8.81961 18.1304 10.6133C17.6861 12.407 16.7012 15.9406 15.1756 21.2143H22.9966ZM71.6775 34.7143H60.5779L53.3853 21.8099L50.4737 23.4258V34.7143H40.5934V0.964277H50.4737V15.6231C50.9714 14.7151 51.9751 13.2762 53.485 11.3063L61.1253 0.964277H71.8767L60.4035 16.0848L71.6775 34.7143ZM76.6464 34.7143V0.964277H86.4225V34.7143H76.6464ZM122.896 17.1236C122.896 22.7564 121.309 27.0963 118.134 30.1435C114.959 33.1907 110.497 34.7143 104.746 34.7143H93.5679V0.964277H105.526C111.072 0.964277 115.353 2.34936 118.37 5.11956C121.387 7.88975 122.896 11.8911 122.896 17.1236ZM112.142 17.5149C112.142 14.5173 111.548 12.2951 110.36 10.8485C109.171 9.40189 107.366 8.67857 104.945 8.67857H102.366V27H104.339C107.03 27 109.003 26.2208 110.259 24.6623C111.515 23.1038 112.142 20.7214 112.142 17.5149ZM162 17.3456C162 23.0199 160.548 27.3331 157.645 30.2856C154.741 33.2381 150.49 34.7143 144.892 34.7143C139.374 34.7143 135.143 33.2304 132.199 30.2626C129.256 27.2947 127.784 22.9737 127.784 17.2995C127.784 11.6867 129.248 7.40035 132.175 4.44021C135.103 1.48006 139.358 0 144.94 0C150.539 0 154.781 1.46852 157.669 4.4056C160.556 7.34268 162 11.656 162 17.3456ZM138.538 17.8868C138.538 24.6052 140.819 27.9643 145.381 27.9643C147.701 27.9643 149.421 27.1483 150.542 25.5162C151.663 23.8842 152.224 21.3411 152.224 17.8868C152.224 14.4167 151.656 11.8538 150.519 10.198C149.382 8.54218 147.685 7.71429 145.427 7.71429C140.834 7.71429 138.538 11.1051 138.538 17.8868Z" fill="white"/>
</svg>
