<svg width="70" height="70" viewBox="0 0 70 70" fill="none" xmlns="http://www.w3.org/2000/svg">
<circle cx="35" cy="35" r="35" fill="#141418"/>
<path d="M35 21.6667C42.352 21.6667 48.3333 27.648 48.3333 35C48.3333 42.352 42.352 48.3333 35 48.3333C27.648 48.3333 21.6667 42.352 21.6667 35C21.6667 27.648 27.648 21.6667 35 21.6667ZM35 19C26.164 19 19 26.164 19 35C19 43.836 26.164 51 35 51C43.836 51 51 43.836 51 35C51 26.164 43.836 19 35 19ZM40.3333 37.7773C40.3333 34.9173 37.3573 34.1213 35.076 33.0493C33.6907 32.3293 33.8653 30.6107 35.8507 30.4947C36.952 30.428 38.084 30.7547 39.108 31.1147L39.5907 28.9187C38.3813 28.5507 37.2987 28.3827 36.3333 28.3573V27H35V28.4227C32.4067 28.7787 31.0213 30.4053 31.0213 32.2227C31.0213 35.4733 34.8173 35.9693 36.0587 36.5467C37.752 37.304 37.4387 38.88 35.9067 39.228C34.5773 39.5293 32.8813 39.004 31.6067 38.508L31 40.7C32.192 41.316 33.62 41.644 35 41.6693V43H36.3333V41.596C38.5427 41.2867 40.336 40.068 40.3333 37.7773Z" fill="white"/>
<mask id="mask0_811_766" style="mask-type:alpha" maskUnits="userSpaceOnUse" x="19" y="19" width="32" height="32">
<path d="M35 21.6667C42.352 21.6667 48.3333 27.648 48.3333 35C48.3333 42.352 42.352 48.3333 35 48.3333C27.648 48.3333 21.6667 42.352 21.6667 35C21.6667 27.648 27.648 21.6667 35 21.6667ZM35 19C26.164 19 19 26.164 19 35C19 43.836 26.164 51 35 51C43.836 51 51 43.836 51 35C51 26.164 43.836 19 35 19ZM40.3333 37.7773C40.3333 34.9173 37.3573 34.1213 35.076 33.0493C33.6907 32.3293 33.8653 30.6107 35.8507 30.4947C36.952 30.428 38.084 30.7547 39.108 31.1147L39.5907 28.9187C38.3813 28.5507 37.2987 28.3827 36.3333 28.3573V27H35V28.4227C32.4067 28.7787 31.0213 30.4053 31.0213 32.2227C31.0213 35.4733 34.8173 35.9693 36.0587 36.5467C37.752 37.304 37.4387 38.88 35.9067 39.228C34.5773 39.5293 32.8813 39.004 31.6067 38.508L31 40.7C32.192 41.316 33.62 41.644 35 41.6693V43H36.3333V41.596C38.5427 41.2867 40.336 40.068 40.3333 37.7773Z" fill="black"/>
</mask>
<g mask="url(#mask0_811_766)">
<rect x="27" y="25" width="16" height="20" fill="#2952E3"/>
</g>
</svg>
