<svg width="20" height="21" viewBox="0 0 20 21" fill="none" xmlns="http://www.w3.org/2000/svg">
<path fill-rule="evenodd" clip-rule="evenodd" d="M14.1171 2.65991C15.2346 2.65991 16.3096 3.10158 17.1005 3.89408C17.8921 4.68491 18.3346 5.75158 18.3346 6.86825V13.4516C18.3346 15.7766 16.443 17.6599 14.1171 17.6599H5.88464C3.5588 17.6599 1.66797 15.7766 1.66797 13.4516V6.86825C1.66797 4.54325 3.55047 2.65991 5.88464 2.65991H14.1171ZM15.443 8.10991L15.5096 8.04324C15.7088 7.80157 15.7088 7.45157 15.5005 7.20991C15.3846 7.08574 15.2255 7.00991 15.0596 6.99324C14.8846 6.98407 14.718 7.04324 14.5921 7.15991L10.8346 10.1599C10.3513 10.5607 9.6588 10.5607 9.16796 10.1599L5.41796 7.15991C5.1588 6.96824 4.80046 6.99324 4.58463 7.21824C4.35963 7.44324 4.33463 7.80157 4.52546 8.05157L4.63463 8.15991L8.4263 11.1182C8.89296 11.4849 9.4588 11.6849 10.0513 11.6849C10.6421 11.6849 11.218 11.4849 11.6838 11.1182L15.443 8.10991Z" fill="#2952E3"/>
</svg>
