<svg width="248" height="23" viewBox="0 0 248 23" fill="none" xmlns="http://www.w3.org/2000/svg">
<g clip-path="url(#clip0_773_676)">
<path d="M55.4321 18.1947H44.3075V13.1166H54.4007V9.29036H44.3075V4.24375H55.1093V0.41748H39.3633V22.0525H55.4164L55.4321 18.1947Z" fill="white"/>
<path d="M70.9613 15.9586L72.9374 22.076H78.2674L70.5519 0.440918H64.4739L56.6875 22.076H61.9231L63.9307 15.9586H70.9613ZM67.4499 4.7002L69.741 12.1009H65.1274L67.4499 4.7002Z" fill="white"/>
<path d="M87.6733 0C83.4691 0 79.7373 2.3619 79.7373 6.39288C79.7373 10.4239 82.5637 12.0693 87.2009 13.2345C90.1454 13.9195 91.1374 14.9587 91.1374 16.4625C91.1374 17.9662 89.7282 18.8795 87.941 18.8795C86.9641 18.943 85.9987 18.6402 85.233 18.0303C84.4673 17.4204 83.9563 16.547 83.7998 15.5807H78.8477C79.2177 20.2573 82.7291 22.5168 88.0355 22.5168C92.3578 22.5168 96.2785 20.2573 96.2785 16.0531C96.2785 12.6362 94.2079 10.3766 89.4447 9.25079C85.9649 8.46349 84.8626 7.55809 84.8626 5.92838C84.8626 4.29867 85.9649 3.63733 87.5001 3.63733C89.5707 3.63733 90.6966 4.92063 90.9485 6.92824H95.9006C95.4361 2.99174 93.0506 0 87.6576 0H87.6733Z" fill="white"/>
<path d="M116.867 4.26719V0.440918H97.5547V4.26719H104.766V22.076H109.656V4.26719H116.867Z" fill="white"/>
<path d="M132.543 10.3768C134.708 9.62887 135.834 8.12512 135.834 6.02303C135.834 3.13363 133.827 1.00002 130.323 0.567008C129.398 0.461489 128.467 0.419422 127.536 0.441061H119.277V22.0761H127.497C128.522 22.1017 129.548 22.0596 130.567 21.9501C133.488 21.5722 136.622 19.5882 136.622 15.5809C136.622 12.8568 135.307 11.1011 132.543 10.3768ZM124.206 4.26733H127.056C127.558 4.26665 128.061 4.29558 128.56 4.35395C129.186 4.35395 129.787 4.60278 130.23 5.04572C130.673 5.48867 130.922 6.08944 130.922 6.71586C130.922 7.34227 130.673 7.94302 130.23 8.38596C129.787 8.82891 129.186 9.07776 128.56 9.07776C128.08 9.14265 127.595 9.17422 127.111 9.17223H124.166L124.206 4.26733ZM129.063 18.1947C128.654 18.1947 128.158 18.1947 127.654 18.1947H124.206V12.7623H127.465C127.967 12.7517 128.47 12.7727 128.969 12.8253C129.638 12.8752 130.265 13.1734 130.726 13.6613C131.187 14.1493 131.449 14.7918 131.461 15.463C131.473 16.1342 131.234 16.7855 130.79 17.2894C130.346 17.7933 129.731 18.1134 129.063 18.1868V18.1947Z" fill="white"/>
<path d="M150.076 0C143.36 0 139.195 4.38526 139.195 11.2584C139.195 18.1315 143.36 22.5168 150.076 22.5168C156.792 22.5168 160.925 18.0922 160.925 11.2584C160.925 4.42462 156.752 0 150.076 0ZM150.076 18.8952C146.462 18.8952 144.273 16.1003 144.273 11.2741C144.273 6.44798 146.462 3.65307 150.076 3.65307C153.69 3.65307 155.839 6.40862 155.839 11.2741C155.839 16.1397 153.65 18.8952 150.076 18.8952Z" fill="white"/>
<path d="M182.653 0.440918H177.756V13.6676C177.769 14.1485 177.75 14.6298 177.701 15.1083C177.544 17.4702 176.126 18.8795 173.434 18.8795C170.741 18.8795 169.324 17.4624 169.135 15.1083C169.135 14.6753 169.135 14.2659 169.135 13.6676V0.440918H164.246V12.9511C164.246 13.951 164.246 14.5808 164.309 15.7067C164.593 19.344 167.128 22.5168 173.465 22.5168C179.803 22.5168 182.338 19.3676 182.59 15.7067C182.685 14.5808 182.685 13.951 182.685 12.9511L182.653 0.440918Z" fill="white"/>
<path d="M202.972 16.7143C202.72 14.2028 201.87 12.4786 199.674 11.6677C202.405 10.8804 203.972 9.09326 203.972 6.3377C203.972 2.54291 201.374 0.9683 198.233 0.598268C197.151 0.478914 196.062 0.426342 194.973 0.440822H186.754V22.0759H191.682V13.5809H193.627C194.225 13.5809 194.753 13.5809 195.351 13.5809C196.981 13.7069 197.886 15.0846 198.17 17.4387C198.315 19.015 198.664 20.5659 199.209 22.0522H204.571C203.689 20.7926 203.248 19.2258 202.996 16.6907L202.972 16.7143ZM191.682 9.96715V4.2671H194.406C195.099 4.2671 195.635 4.26711 196.068 4.33009C197.642 4.51117 198.831 5.11738 198.831 7.11712C198.831 9.11687 197.485 9.78609 195.879 9.93568C195.446 9.93568 194.91 9.93568 194.225 9.93568L191.682 9.96715Z" fill="white"/>
<path d="M227.398 22.076V0.440986H222.509V10.0618C222.509 11.6364 222.509 14.1085 222.666 16.3602L213.951 0.433105H207.652V22.0682H212.573V12.6835C212.573 11.1089 212.534 8.88871 212.376 6.59767L220.848 22.0918L227.398 22.076Z" fill="white"/>
<path d="M247.998 18.1947H236.866V13.1166H246.967V9.29036H236.866V4.24375H247.684V0.41748H231.938V22.0525H247.998V18.1947Z" fill="white"/>
<path d="M16.8404 0H0V3.59797H16.8404V0Z" fill="white"/>
<path d="M15.1792 9.36865H0V12.9194H15.1792V9.36865Z" fill="white"/>
<path d="M16.7931 18.9189H0V22.5169H16.7931V18.9189Z" fill="white"/>
<path d="M26.6113 0H25.8555V22.5168H26.6113V0Z" fill="white"/>
</g>
<defs>
<clipPath id="clip0_773_676">
<rect width="248" height="22.5168" fill="white"/>
</clipPath>
</defs>
</svg>
