<svg width="228" height="48" viewBox="0 0 228 48" fill="none" xmlns="http://www.w3.org/2000/svg">
<path fill-rule="evenodd" clip-rule="evenodd" d="M76.4661 47.5168H74.9304V32.403H84.0381V33.7692H76.4661V39.0206H83.5049V40.3655H76.4661V47.5168ZM88.8977 47.5168H87.362V32.403H88.8977V47.5168ZM104.06 45.2753H104.102V32.403H105.638V47.5168H103.718L94.9304 34.5164H94.8878V47.5168H93.352V32.403H95.2717L104.06 45.2753ZM109.986 47.5168H108.301L114.827 32.403H116.321L122.805 47.5168H121.098L119.435 43.5462H111.628L109.986 47.5168ZM112.204 42.1373H118.859L115.531 34.1108L112.204 42.1373ZM136.175 45.2753H136.217V32.403H137.753V47.5168H135.834L127.046 34.5164H127.003V47.5168H125.467V32.403H127.387L136.175 45.2753ZM154.92 45.0832C154.664 45.4674 154.355 45.8303 153.992 46.1719C153.63 46.5134 153.21 46.8123 152.734 47.0685C152.257 47.3246 151.731 47.5274 151.155 47.6769C150.579 47.8263 149.95 47.901 149.268 47.901C148.13 47.901 147.078 47.7018 146.111 47.3033C145.144 46.9048 144.312 46.3533 143.615 45.6489C142.919 44.9444 142.375 44.1083 141.984 43.1406C141.593 42.1729 141.397 41.1126 141.397 39.9599C141.397 38.8071 141.596 37.7469 141.994 36.7792C142.392 35.8114 142.943 34.9753 143.647 34.2709C144.351 33.5664 145.183 33.0149 146.143 32.6165C147.103 32.218 148.144 32.0187 149.268 32.0187C149.822 32.0187 150.366 32.0757 150.899 32.1895C151.433 32.3034 151.934 32.4635 152.403 32.6698C152.872 32.8762 153.299 33.1252 153.683 33.417C154.067 33.7087 154.387 34.0396 154.643 34.4096L153.363 35.3489C153.207 35.107 152.997 34.865 152.734 34.6231C152.471 34.3812 152.161 34.1677 151.806 33.9827C151.45 33.7977 151.063 33.6482 150.643 33.5344C150.224 33.4205 149.772 33.3636 149.289 33.3636C148.308 33.3636 147.43 33.5415 146.655 33.8973C145.88 34.2531 145.222 34.7334 144.682 35.3382C144.141 35.9431 143.729 36.644 143.445 37.4409C143.16 38.2379 143.018 39.0775 143.018 39.9599C143.018 40.8422 143.164 41.6819 143.455 42.4788C143.747 43.2758 144.163 43.9767 144.703 44.5815C145.243 45.1864 145.901 45.6667 146.676 46.0225C147.451 46.3783 148.322 46.5561 149.289 46.5561C150.156 46.5561 150.981 46.3783 151.763 46.0225C152.545 45.6667 153.199 45.0974 153.726 44.3147L154.92 45.0832ZM159.545 46.1505H167.629V47.5168H158.009V32.403H167.373V33.7692H159.545V38.9779H166.861V40.3228H159.545V46.1505ZM20.3719 20.5347C20.3719 21.6288 20.1654 22.5769 19.7524 23.3792C19.3395 24.1815 18.8172 24.8987 18.1856 25.5308C17.2868 26.4061 16.1876 27.0564 14.888 27.4819C13.5883 27.9073 12.2462 28.1201 10.8615 28.1201C7.72785 28.1201 5.26223 27.2935 3.46461 25.6402C2.63867 24.8622 1.97065 23.9445 1.46051 22.8869C0.950377 21.8293 0.695312 20.6806 0.695312 19.4407H4.08406C4.08406 20.2187 4.2541 20.9662 4.59419 21.6835C4.93428 22.4007 5.37153 23.0145 5.90596 23.5251C6.48898 24.0843 7.22988 24.4915 8.12869 24.7468C9.0275 25.002 9.93844 25.1297 10.8615 25.1297C11.8575 25.1297 12.7624 25.0203 13.5762 24.8015C14.39 24.5827 15.0884 24.1937 15.6714 23.6345C16.0843 23.2698 16.4062 22.8504 16.637 22.3763C16.8678 21.9023 16.9832 21.3127 16.9832 20.6077C16.9832 19.5865 16.6431 18.6992 15.9629 17.9455C15.2827 17.1918 14.1774 16.6934 12.647 16.4503C11.9425 16.3287 11.2624 16.2254 10.6065 16.1403C9.95059 16.0552 9.27042 15.9519 8.56595 15.8303C7.59426 15.6845 6.68939 15.4414 5.85131 15.101C5.01323 14.7606 4.28447 14.3048 3.66502 13.7334C3.04557 13.1621 2.55973 12.4814 2.20749 11.6912C1.85526 10.9011 1.67914 9.99547 1.67914 8.97436C1.67914 8.00187 1.87955 7.07195 2.28037 6.18455C2.68119 5.29716 3.23383 4.52526 3.93831 3.86883C5.76022 2.16699 8.01936 1.31607 10.7158 1.31607C11.979 1.31607 13.1997 1.52272 14.3778 1.93603C15.556 2.34934 16.5702 2.96929 17.4204 3.7959C18.9994 5.30325 19.8253 7.15095 19.8982 9.33904H16.5095C16.4609 8.70692 16.3273 8.11128 16.1086 7.5521C15.89 6.99292 15.5985 6.50669 15.2341 6.09338C14.7483 5.5342 14.1228 5.09659 13.3576 4.78053C12.5924 4.46448 11.6996 4.30645 10.6794 4.30645C9.75625 4.30645 8.89997 4.44624 8.11047 4.72583C7.32097 5.00542 6.64687 5.46127 6.08815 6.09338C5.74806 6.48238 5.48693 6.90176 5.30473 7.35153C5.12254 7.8013 5.03145 8.31793 5.03145 8.90142C5.03145 9.48491 5.14076 9.98938 5.35939 10.4148C5.57802 10.8403 5.86952 11.1989 6.23391 11.4906C6.59829 11.7824 7.01125 12.0134 7.4728 12.1835C7.93435 12.3537 8.40805 12.4753 8.89389 12.5482C9.62266 12.6455 10.3453 12.7488 11.062 12.8582C11.7786 12.9676 12.4891 13.0831 13.1936 13.2046C15.3556 13.5207 17.0925 14.3048 18.4042 15.5568C19.716 16.8089 20.3719 18.4682 20.3719 20.5347ZM33.351 4.817V27.646H30.0715V4.817H22.3831V1.79016H41.0394V4.817H33.351ZM45.6013 27.646V1.79016H62.873V4.78053H48.8443V12.6576H61.1604V15.7209H48.8443V24.6556H62.873V27.646H45.6013ZM83.5769 9.59431C83.5769 7.94109 83.1032 6.71942 82.1558 5.92928C81.2084 5.13913 79.9331 4.74407 78.3298 4.74407H72.0625V14.6634H78.3663C80.1153 14.6634 81.421 14.2561 82.2834 13.4417C83.1457 12.6272 83.5769 11.3448 83.5769 9.59431ZM86.9292 9.59431C86.9292 12.0742 86.2126 14.0312 84.7794 15.4657C84.0749 16.1707 83.2004 16.7056 82.1558 17.0703C81.1113 17.4349 79.8724 17.6173 78.4391 17.6173H72.0625V27.646H68.8195V1.79016H78.4027C79.9331 1.79016 81.2327 1.99073 82.3016 2.39188C83.3704 2.79303 84.2571 3.37043 84.9616 4.12411C85.5932 4.80485 86.079 5.60106 86.4191 6.51277C86.7592 7.42447 86.9292 8.45164 86.9292 9.59431ZM97.357 14.3556C97.357 20.1905 101.438 22.9621 105.41 22.9621C109.418 22.9621 113.499 20.1905 113.499 14.3556C113.499 8.52074 109.418 5.74917 105.41 5.74917C101.438 5.74917 97.357 8.52074 97.357 14.3556ZM92.1464 14.3921C92.1464 6.04092 98.4138 0.898926 105.41 0.898926C112.442 0.898926 118.71 6.04092 118.71 14.3921C118.71 22.7068 112.442 27.8488 105.41 27.8488C98.4138 27.8488 92.1464 22.7068 92.1464 14.3921ZM145.127 27.3018V1.44595H140.099V18.5494L129.35 1.44595H123.082V27.3018H128.111V8.95836L139.844 27.3018H145.127ZM167.209 27.3018V22.5609H156.059V16.5802H166.152V12.0946H156.059V6.18679H167.209V1.44595H151.03V27.3018H167.209Z" fill="white"/>
<path d="M228 0H178V48H228V0Z" fill="url(#paint0_linear_864_319)"/>
<path fill-rule="evenodd" clip-rule="evenodd" d="M185.277 24.4839H203.077L185.277 42.7779V24.4839Z" fill="white"/>
<path fill-rule="evenodd" clip-rule="evenodd" d="M203.52 5.74414H221.32L203.52 24.0381V5.74414Z" fill="white"/>
<defs>
<linearGradient id="paint0_linear_864_319" x1="178" y1="0.94656" x2="225.999" y2="49.9596" gradientUnits="userSpaceOnUse">
<stop stop-color="#C6231F"/>
<stop offset="1" stop-color="#961413"/>
</linearGradient>
</defs>
</svg>
