<svg width="70" height="70" viewBox="0 0 70 70" fill="none" xmlns="http://www.w3.org/2000/svg">
<circle cx="35" cy="35" r="35" fill="#141418"/>
<path d="M21.8768 40.5643L23.8018 28.8411L25.7661 37.2804C25.9607 38.1446 27.1625 38.2429 27.4893 37.4089L29.2696 32.8589L30.2929 34.9393C30.2929 34.9393 30.6268 35.5 31.1821 35.5H33.6429V33.7143H31.7679L30.0607 30.1214C29.7411 29.3804 28.6839 29.3964 28.3893 30.15L26.8804 34.0071L24.5536 23.7054C24.4482 23.2321 24.0625 23 23.6786 23C23.2696 23 22.8625 23.2589 22.7821 23.7589L20.8518 35.6607L18.8786 28.3321C18.6589 27.4571 17.425 27.4054 17.1429 28.275L15.6768 33.7143H14V35.4714H16.3875C16.7143 35.4714 17.0679 35.2089 17.1607 34.8946L17.9929 32.2054L20.1125 40.6393C20.35 41.5911 21.7196 41.5286 21.8768 40.5643ZM56.8571 45.475L51.8018 40.4179C52.7339 39.0071 53.2857 37.3196 53.2857 35.5C53.2857 30.5696 49.2893 26.5714 44.3571 26.5714C39.425 26.5714 35.4286 30.5696 35.4286 35.5C35.4286 40.4304 39.425 44.4286 44.3571 44.4286C46.1768 44.4286 47.8643 43.8768 49.2768 42.9429L54.3321 48L56.8571 45.475ZM39 35.5C39 32.5464 41.4036 30.1429 44.3571 30.1429C47.3107 30.1429 49.7143 32.5464 49.7143 35.5C49.7143 38.4536 47.3107 40.8571 44.3571 40.8571C41.4036 40.8571 39 38.4536 39 35.5Z" fill="white"/>
<mask id="mask0_811_757" style="mask-type:alpha" maskUnits="userSpaceOnUse" x="14" y="23" width="43" height="25">
<path d="M21.8768 40.5643L23.8018 28.8411L25.7661 37.2804C25.9607 38.1446 27.1625 38.2429 27.4893 37.4089L29.2696 32.8589L30.2929 34.9393C30.2929 34.9393 30.6268 35.5 31.1821 35.5H33.6429V33.7143H31.7679L30.0607 30.1214C29.7411 29.3804 28.6839 29.3964 28.3893 30.15L26.8804 34.0071L24.5536 23.7054C24.4482 23.2321 24.0625 23 23.6786 23C23.2696 23 22.8625 23.2589 22.7821 23.7589L20.8518 35.6607L18.8786 28.3321C18.6589 27.4571 17.425 27.4054 17.1429 28.275L15.6768 33.7143H14V35.4714H16.3875C16.7143 35.4714 17.0679 35.2089 17.1607 34.8946L17.9929 32.2054L20.1125 40.6393C20.35 41.5911 21.7196 41.5286 21.8768 40.5643ZM56.8571 45.475L51.8018 40.4179C52.7339 39.0071 53.2857 37.3196 53.2857 35.5C53.2857 30.5696 49.2893 26.5714 44.3571 26.5714C39.425 26.5714 35.4286 30.5696 35.4286 35.5C35.4286 40.4304 39.425 44.4286 44.3571 44.4286C46.1768 44.4286 47.8643 43.8768 49.2768 42.9429L54.3321 48L56.8571 45.475ZM39 35.5C39 32.5464 41.4036 30.1429 44.3571 30.1429C47.3107 30.1429 49.7143 32.5464 49.7143 35.5C49.7143 38.4536 47.3107 40.8571 44.3571 40.8571C41.4036 40.8571 39 38.4536 39 35.5Z" fill="black"/>
</mask>
<g mask="url(#mask0_811_757)">
<rect x="11" y="22" width="24" height="20" fill="#2952E3"/>
</g>
</svg>
