<svg width="70" height="70" viewBox="0 0 70 70" fill="none" xmlns="http://www.w3.org/2000/svg">
<circle cx="35" cy="35" r="35" fill="#141418"/>
<path fill-rule="evenodd" clip-rule="evenodd" d="M43.8491 46.0588H25.0499C22.6837 37.9709 34.5476 34.9647 31.3709 31.9463C29.5228 30.1902 27.5312 34.0352 24.916 33.1829C23.1396 32.6052 22.2304 29.2851 23.9487 28.4706C27.1375 26.958 26.7574 23.9179 28.1604 22.8518C29.7392 21.6531 31.3357 23.1373 32.3653 22.3336C33.0147 21.8249 32.345 20.4179 31.3195 19C38.8161 19.7644 42.1011 22.7436 43.4405 27H41.0647C40.74 27 41.0647 28.7263 41.0647 29.1471C41.0647 29.4704 41.3204 29.8235 41.7412 29.8235H44.4565C44.5837 30.4946 44.646 31.1481 44.646 31.7718L44.6297 32.5294H42.139C41.7195 32.5294 41.4625 32.8812 41.4625 33.2059C41.4625 33.5292 41.7195 33.8824 42.139 33.8824H44.5201C44.3957 34.893 44.1914 35.7846 43.9532 36.5882H41.2636C40.8428 36.5882 40.5871 36.94 40.5871 37.2647C40.5871 37.5881 40.8428 37.9412 41.2636 37.9412H43.4973C42.3081 41.1395 40.9917 42.9051 43.8491 46.0588Z" fill="#181620" stroke="white" stroke-width="2.2"/>
<mask id="mask0_811_775" style="mask-type:alpha" maskUnits="userSpaceOnUse" x="23" y="49" width="23" height="5">
<path d="M43.9706 49.9116C44.7104 49.9116 45.5 50.4997 45.5 51.441C45.5 52.1808 44.9119 52.9704 43.9706 52.9704H25.0294C24.092 52.9704 23.5 52.1899 23.5 51.441C23.5 50.6972 24.0951 49.9116 25.0294 49.9116H43.9706Z" fill="black" stroke="black"/>
</mask>
<g mask="url(#mask0_811_775)">
<rect x="22" y="48" width="25" height="8" fill="#2952E3"/>
</g>
<circle cx="34" cy="27" r="2" fill="white"/>
</svg>
